<svg width="22" height="24" viewBox="0 0 22 24" fill="none" xmlns="http://www.w3.org/2000/svg">
<path fill-rule="evenodd" clip-rule="evenodd" d="M11.2295 0.803284C5.31196 0.803284 0.509277 5.8341 0.509277 12.0328C0.509277 18.2315 5.31196 23.2623 11.2295 23.2623C17.1471 23.2623 21.9498 18.2315 21.9498 12.0328C21.9498 5.8341 17.1471 0.803284 11.2295 0.803284ZM5.94445 19.0849C6.40542 18.0743 9.21413 17.0861 11.2295 17.0861C13.245 17.0861 16.0644 18.0743 16.5146 19.0849C15.0567 20.2977 13.2235 21.0164 11.2295 21.0164C9.23557 21.0164 7.40241 20.2977 5.94445 19.0849ZM18.0476 17.4566C16.5146 15.5027 12.7947 14.8402 11.2295 14.8402C9.66439 14.8402 5.94445 15.5027 4.41145 17.4566C3.31799 15.9519 2.65333 14.0766 2.65333 12.0328C2.65333 7.08058 6.50191 3.04919 11.2295 3.04919C15.9572 3.04919 19.8058 7.08058 19.8058 12.0328C19.8058 14.0766 19.1411 15.9519 18.0476 17.4566ZM11.2295 5.29509C9.14981 5.29509 7.47745 7.04689 7.47745 9.22541C7.47745 11.4039 9.14981 13.1557 11.2295 13.1557C13.3093 13.1557 14.9816 11.4039 14.9816 9.22541C14.9816 7.04689 13.3093 5.29509 11.2295 5.29509ZM11.2295 10.9098C10.3398 10.9098 9.6215 10.1575 9.6215 9.22541C9.6215 8.29337 10.3398 7.54099 11.2295 7.54099C12.1193 7.54099 12.8376 8.29337 12.8376 9.22541C12.8376 10.1575 12.1193 10.9098 11.2295 10.9098Z" fill="#354147"/>
</svg>
