<svg width="18" height="18" viewBox="0 0 18 18" fill="none" xmlns="http://www.w3.org/2000/svg">
<path d="M5.50033 0.666687H12.5003C15.1697 0.666687 17.3337 2.83065 17.3337 5.50002V12.5C17.3337 15.1694 15.1697 17.3333 12.5003 17.3333H5.50033C2.83095 17.3333 0.666992 15.1694 0.666992 12.5V5.50002C0.666992 2.83065 2.83095 0.666687 5.50033 0.666687ZM5.33366 2.33334C3.6768 2.33334 2.33366 3.67649 2.33366 5.33334V12.6667C2.33366 14.3235 3.6768 15.6667 5.33366 15.6667H12.667C14.3238 15.6667 15.667 14.3235 15.667 12.6667V5.33334C15.667 3.67649 14.3238 2.33334 12.667 2.33334H5.33366ZM13.3753 3.58334C13.9507 3.58334 14.417 4.04971 14.417 4.625C14.417 5.2003 13.9507 5.66667 13.3753 5.66667C12.8 5.66667 12.3337 5.2003 12.3337 4.625C12.3337 4.04971 12.8 3.58334 13.3753 3.58334ZM9.00033 4.83334C11.3015 4.83334 13.167 6.69882 13.167 9C13.167 11.3012 11.3015 13.1667 9.00033 13.1667C6.69913 13.1667 4.83366 11.3012 4.83366 9C4.83366 6.69882 6.69913 4.83334 9.00033 4.83334ZM9.00033 6.5C7.61958 6.5 6.50033 7.61934 6.50033 9C6.50033 10.3808 7.61958 11.5 9.00033 11.5C10.3811 11.5 11.5003 10.3808 11.5003 9C11.5003 7.61934 10.3811 6.5 9.00033 6.5Z" fill="#0B1D26"/>
</svg>
