<svg width="18" height="15" viewBox="0 0 18 15" fill="none" xmlns="http://www.w3.org/2000/svg">
<path d="M17.7162 2.01031C17.0749 2.29477 16.3855 2.48701 15.6622 2.57345C16.4004 2.13084 16.9676 1.42998 17.2346 0.594811C16.5435 1.00469 15.7782 1.30231 14.9635 1.46266C14.3112 0.767595 13.3818 0.333328 12.3531 0.333328C10.378 0.333328 8.77661 1.93455 8.77661 3.90962C8.77661 4.18991 8.80828 4.46288 8.86928 4.72466C5.89695 4.5755 3.26166 3.15169 1.49778 0.98792C1.18991 1.51612 1.01355 2.13046 1.01355 2.7859C1.01355 4.0267 1.6449 5.12135 2.60456 5.76274C2.01836 5.74408 1.46684 5.58325 0.984697 5.31538C0.984355 5.33032 0.984355 5.34525 0.984355 5.36033C0.984355 7.09316 2.21715 8.53858 3.8532 8.86716C3.55311 8.94891 3.23715 8.99266 2.91099 8.99266C2.68054 8.99266 2.4565 8.97016 2.23809 8.9285C2.69321 10.3492 4.01398 11.3833 5.57899 11.4121C4.355 12.3714 2.81293 12.9432 1.13731 12.9432C0.848638 12.9432 0.563963 12.9262 0.28418 12.8931C1.8669 13.9078 3.7468 14.5 5.76645 14.5C12.3447 14.5 15.942 9.05041 15.942 4.32431C15.942 4.16928 15.9385 4.01504 15.9316 3.86162C16.6304 3.35738 17.2368 2.72751 17.7162 2.01031Z" fill="#0B1D26"/>
</svg>
